<svg width="10" height="7" viewBox="0 0 10 7" fill="none" xmlns="http://www.w3.org/2000/svg">
<path d="M2.29756 6.128C1.8389 6.128 1.43623 6.00533 1.08956 5.76C0.742896 5.50933 0.473563 5.168 0.281563 4.736C0.0948958 4.29867 0.00156251 3.808 0.00156251 3.264C0.00156251 2.72 0.0948958 2.232 0.281563 1.8C0.473563 1.36267 0.742896 1.02133 1.08956 0.776C1.43623 0.525333 1.8389 0.4 2.29756 0.4C2.75623 0.4 3.1589 0.525333 3.50556 0.776C3.85223 1.02133 4.1189 1.36267 4.30556 1.8C4.49756 2.232 4.59356 2.72 4.59356 3.264C4.59356 3.808 4.49756 4.29867 4.30556 4.736C4.1189 5.168 3.85223 5.50933 3.50556 5.76C3.1589 6.00533 2.75623 6.128 2.29756 6.128ZM2.29756 5.144C2.55356 5.144 2.7749 5.064 2.96156 4.904C3.15356 4.73867 3.29756 4.51467 3.39356 4.232C3.4949 3.944 3.54556 3.62133 3.54556 3.264C3.54556 2.70933 3.43356 2.25867 3.20956 1.912C2.98556 1.56 2.68156 1.384 2.29756 1.384C1.9189 1.384 1.61756 1.56 1.39356 1.912C1.16956 2.264 1.05756 2.71467 1.05756 3.264C1.05756 3.62133 1.10556 3.944 1.20156 4.232C1.3029 4.51467 1.4469 4.73867 1.63356 4.904C1.82556 5.064 2.0469 5.144 2.29756 5.144ZM7.696 6.128C7.23733 6.128 6.83467 6.00533 6.488 5.76C6.14133 5.50933 5.872 5.168 5.68 4.736C5.49333 4.29867 5.4 3.808 5.4 3.264C5.4 2.72 5.49333 2.232 5.68 1.8C5.872 1.36267 6.14133 1.02133 6.488 0.776C6.83467 0.525333 7.23733 0.4 7.696 0.4C8.15467 0.4 8.55733 0.525333 8.904 0.776C9.25067 1.02133 9.51733 1.36267 9.704 1.8C9.896 2.232 9.992 2.72 9.992 3.264C9.992 3.808 9.896 4.29867 9.704 4.736C9.51733 5.168 9.25067 5.50933 8.904 5.76C8.55733 6.00533 8.15467 6.128 7.696 6.128ZM7.696 5.144C7.952 5.144 8.17333 5.064 8.36 4.904C8.552 4.73867 8.696 4.51467 8.792 4.232C8.89333 3.944 8.944 3.62133 8.944 3.264C8.944 2.70933 8.832 2.25867 8.608 1.912C8.384 1.56 8.08 1.384 7.696 1.384C7.31733 1.384 7.016 1.56 6.792 1.912C6.568 2.264 6.456 2.71467 6.456 3.264C6.456 3.62133 6.504 3.944 6.6 4.232C6.70133 4.51467 6.84533 4.73867 7.032 4.904C7.224 5.064 7.44533 5.144 7.696 5.144Z" fill="white"/>
</svg>
